<svg xmlns="http://www.w3.org/2000/svg" xmlns:xlink="http://www.w3.org/1999/xlink" width="1920" zoomAndPan="magnify" viewBox="0 0 1440 809.999993" height="1080" preserveAspectRatio="xMidYMid meet" version="1.0"><defs><filter x="0%" y="0%" width="100%" height="100%" id="4320e71883"><feColorMatrix values="0 0 0 0 1 0 0 0 0 1 0 0 0 0 1 0 0 0 1 0" color-interpolation-filters="sRGB"/></filter><clipPath id="714f7441e1"><path d="M 0.0078125 550 L 1440 550 L 1440 809.996094 L 0.0078125 809.996094 Z M 0.0078125 550 " clip-rule="nonzero"/></clipPath><mask id="f7ac55bf7d"><g filter="url(#4320e71883)"><rect x="-144" width="1728" fill="#000000" y="-80.999999" height="971.999992" fill-opacity="0.65"/></g></mask><clipPath id="d2c4d3478c"><path d="M 0.0078125 1 L 1440 1 L 1440 259.996094 L 0.0078125 259.996094 Z M 0.0078125 1 " clip-rule="nonzero"/></clipPath><clipPath id="42fb6b65fe"><rect x="0" width="1440" y="0" height="260"/></clipPath><clipPath id="9864bf41a5"><path d="M 0.0078125 588 L 1440 588 L 1440 809.996094 L 0.0078125 809.996094 Z M 0.0078125 588 " clip-rule="nonzero"/></clipPath></defs><g clip-path="url(#714f7441e1)"><g mask="url(#f7ac55bf7d)"><g transform="matrix(1, 0, 0, 1, 0, 550)"><g clip-path="url(#42fb6b65fe)"><g clip-path="url(#d2c4d3478c)"><path fill="#7e99e7" d="M 2038.601562 112.515625 C 2038.601562 112.515625 2038.601562 327.152344 2038.601562 327.152344 C 2038.601562 327.152344 -296.082031 327.152344 -296.082031 327.152344 C -296.082031 327.152344 -296.082031 112.515625 -296.082031 112.515625 C -215.242188 117.101562 -102.070312 91.839844 54.265625 1.757812 C 54.265625 1.757812 54.78125 1.757812 54.78125 1.757812 C 61.492188 9.945312 237.007812 219.046875 493.015625 1.757812 C 493.015625 1.757812 493.507812 1.757812 493.507812 1.757812 C 500.15625 9.796875 670.890625 211.449219 892.351562 1.757812 C 892.351562 1.757812 1171.648438 216.484375 1387.625 1.757812 C 1387.625 1.757812 1388.089844 1.757812 1388.089844 1.757812 C 1395.363281 9.964844 1586.121094 220.023438 1852.925781 1.757812 C 1852.925781 1.757812 1853.328125 1.757812 1853.328125 1.757812 C 1855.667969 7.292969 1898.742188 104.578125 2038.601562 112.515625 Z M 2038.601562 112.515625 " fill-opacity="1" fill-rule="nonzero"/></g></g></g></g></g><g clip-path="url(#9864bf41a5)"><path fill="#5974c2" d="M 2267.109375 699.671875 C 2267.109375 699.671875 2267.109375 914.308594 2267.109375 914.308594 C 2267.109375 914.308594 -67.570312 914.308594 -67.570312 914.308594 C -67.570312 914.308594 -67.570312 699.671875 -67.570312 699.671875 C 13.269531 704.257812 126.441406 678.996094 282.773438 588.914062 C 282.773438 588.914062 283.292969 588.914062 283.292969 588.914062 C 290.003906 597.097656 465.519531 806.203125 721.527344 588.914062 C 721.527344 588.914062 722.019531 588.914062 722.019531 588.914062 C 728.667969 596.953125 899.402344 798.605469 1120.859375 588.914062 C 1120.859375 588.914062 1400.160156 803.640625 1616.136719 588.914062 C 1616.136719 588.914062 1616.597656 588.914062 1616.597656 588.914062 C 1623.875 597.117188 1814.628906 807.179688 2081.4375 588.914062 C 2081.4375 588.914062 2081.839844 588.914062 2081.839844 588.914062 C 2084.179688 594.449219 2127.253906 691.734375 2267.109375 699.671875 Z M 2267.109375 699.671875 " fill-opacity="1" fill-rule="nonzero"/></g></svg>